<svg xmlns="http://www.w3.org/2000/svg" width="256" height="256"><path fill-opacity=".016" d="M0 128.004v128.004l128.25-.254 128.25-.254.254-127.75L257.008 0H0v128.004m.485.496c0 70.4.119 99.053.265 63.672.146-35.38.146-92.98 0-128C.604 29.153.485 58.1.485 128.5" fill="#fff" fill-rule="evenodd"/><path fill-opacity=".315" d="M43.929 34.353c-9.915 2.705-19.058 10.369-23.292 19.525C18.519 58.459 18.5 59.12 18.5 128s.019 69.541 2.137 74.122c4.292 9.282 12.499 16.071 23.295 19.269C48.722 222.81 58.647 223 128 223s79.278-.19 84.068-1.609c10.796-3.198 19.003-9.987 23.295-19.269 2.118-4.581 2.137-5.242 2.137-74.122V58.5l-2.77-5.642c-3.375-6.871-9.965-13.14-17.555-16.698L211.5 33.5l-81.5-.197c-62.489-.151-82.566.094-86.071 1.05m26.345 43.74c-11.046 5.468-11.169 20.349-.213 25.938 5.449 2.78 13.37 2.81 18.738.072 11.504-5.869 10.615-21.535-1.517-26.726-4.73-2.024-12.098-1.714-17.008.716m78.082 51.657c-1.712.963-22.957 17.275-47.213 36.25l-44.1 34.5 73.229.294c66.875.269 73.505.149 76.425-1.379 4.429-2.318 6.303-6.825 6.303-15.159v-6.942l-27.15-23.407c-14.932-12.874-28.095-23.954-29.25-24.622-2.891-1.671-4.617-1.574-8.244.465" fill="#fff" fill-rule="evenodd"/><path fill-opacity=".494" d="M45.23 34.536C34 37.59 26.508 43.294 22.076 52.165L19 58.319l.01 69.591.01 69.59 2.404 5.164c4.657 10.003 14.971 17.36 27.127 19.35 7.901 1.294 150.997 1.294 158.898 0 12.156-1.99 22.47-9.347 27.127-19.35l2.404-5.164.01-69.59.01-69.591-3.11-6.223c-3.634-7.273-9.903-12.746-18.638-16.273L209.5 33.5l-79.5-.199c-66.365-.166-80.371.038-84.77 1.235m27.407 41.929c-4.931 1.758-9.281 5.925-10.713 10.265-4.155 12.591 11.43 24.326 24.858 18.717 15.28-6.383 13.837-24.94-2.282-29.343-5.109-1.396-7.106-1.335-11.863.361m30.12 87.785c-25.642 19.938-46.652 36.588-46.69 37-.106 1.186 143.818.91 148.119-.285 2.027-.563 4.856-2.415 6.287-4.115 2.424-2.881 2.582-3.678 2.314-11.687l-.287-8.595-19.5-16.897C158.015 129.357 156.286 128 152.656 128c-2.784 0-10.281 5.447-49.899 36.25" fill="#fff" fill-rule="evenodd"/><path fill-opacity=".977" d="M42.945 35.442c-7.397 2.743-11.816 5.621-16.313 10.622-7.964 8.858-7.724 6.143-7.409 84.034L19.5 198.5l2.672 5.063c3.335 6.319 9.404 11.877 16.708 15.302l5.62 2.635h167l5.62-2.635c7.304-3.425 13.373-8.983 16.708-15.302l2.672-5.063.277-68.402c.239-59.073.068-69.12-1.257-73.676-2.133-7.337-9.463-15.2-17.729-19.017L211.5 34.5l-82.5-.188c-66.185-.152-83.203.072-86.055 1.13M72.436 76.07c-1.685.49-4.714 2.542-6.732 4.56C55.248 91.085 63.574 107 79.5 107c12.752 0 22.181-12.024 17.095-21.8-4.231-8.132-14.384-11.969-24.159-9.13m69.841 57.18c-3.792 2.887-25.039 19.425-47.216 36.75l-40.322 31.5 73.881.262c53.609.19 74.64-.052 76.65-.88 1.524-.628 3.886-2.468 5.25-4.088 2.223-2.642 2.48-3.846 2.478-11.621l-.001-8.673-28.156-24.25c-33.128-28.533-31.185-27.666-42.564-19" fill="#fff" fill-rule="evenodd"/></svg>